<svg width="527" height="495" viewBox="0 0 527 495" fill="none" xmlns="http://www.w3.org/2000/svg">
<path d="M318.892 263.572C270.873 288.128 214.429 278.302 177.344 243.218L151.24 256.558C196.326 305.424 269.879 320.514 331.943 288.782C394.008 257.049 425.065 188.482 412.176 123.169L385.715 136.706C392.2 187.436 366.944 239.016 318.924 263.572H318.892Z" fill="url(#paint0_linear_360_1028)"/>
<path d="M146.637 196.644C143.199 187.587 140.918 178.35 139.663 169.047C132.852 118.104 158.124 66.1482 206.355 41.4944C254.586 16.8405 311.323 26.8622 348.409 62.3226C355.171 68.7967 361.281 76.0883 366.56 84.1972L461.768 35.5271L466.526 1.68521L374.675 48.9003C329.589 0.0339892 256.037 -15.0559 193.972 16.677C131.923 48.3935 100.85 116.976 113.739 182.29L22.377 229.014L52.1303 244.954L146.621 196.644H146.637Z" fill="url(#paint1_linear_360_1028)"/>
<path d="M454.19 86.131L459.225 52.4036L67.2012 252.806L97.6062 268.419L454.19 86.131Z" fill="url(#paint2_linear_360_1028)"/>
<path d="M6.97376 399.212H18.0965V451.648H44.6674V461.711H6.97376V399.212ZM50.1894 419.339H60.7825V461.711H50.1894V419.339ZM48.6887 404.95C48.6887 403.243 49.3067 401.772 50.5425 400.536C51.8372 399.242 53.4556 398.594 55.3977 398.594C57.3397 398.594 58.9581 399.212 60.2528 400.448C61.6064 401.625 62.2832 403.126 62.2832 404.95C62.2832 406.774 61.6064 408.305 60.2528 409.54C58.9581 410.717 57.3397 411.306 55.3977 411.306C53.4556 411.306 51.8372 410.688 50.5425 409.452C49.3067 408.157 48.6887 406.657 48.6887 404.95ZM71.1783 394.975H81.7714V424.724H82.0362C82.5658 424.018 83.2426 423.311 84.0665 422.605C84.8904 421.84 85.8909 421.134 87.0679 420.487C88.2449 419.839 89.5984 419.31 91.1286 418.898C92.6587 418.486 94.4242 418.28 96.4251 418.28C99.4264 418.28 102.192 418.868 104.723 420.045C107.254 421.163 109.402 422.723 111.167 424.724C112.991 426.725 114.404 429.079 115.404 431.786C116.405 434.493 116.905 437.406 116.905 440.525C116.905 443.644 116.434 446.557 115.493 449.264C114.551 451.971 113.168 454.325 111.344 456.326C109.519 458.327 107.312 459.916 104.723 461.093C102.134 462.211 99.2205 462.77 95.9837 462.77C92.9823 462.77 90.1869 462.182 87.5975 461.005C85.0081 459.828 82.9484 457.945 81.4183 455.355H81.2417V461.711H71.1783V394.975ZM106.312 440.525C106.312 438.877 106.018 437.288 105.429 435.758C104.9 434.228 104.076 432.875 102.957 431.698C101.898 430.521 100.603 429.579 99.0733 428.873C97.5432 428.167 95.8072 427.813 93.8651 427.813C91.923 427.813 90.1869 428.167 88.6568 428.873C87.1267 429.579 85.8026 430.521 84.6844 431.698C83.6251 432.875 82.8012 434.228 82.2127 435.758C81.6831 437.288 81.4183 438.877 81.4183 440.525C81.4183 442.173 81.6831 443.762 82.2127 445.292C82.8012 446.822 83.6251 448.176 84.6844 449.353C85.8026 450.53 87.1267 451.471 88.6568 452.177C90.1869 452.884 91.923 453.237 93.8651 453.237C95.8072 453.237 97.5432 452.884 99.0733 452.177C100.603 451.471 101.898 450.53 102.957 449.353C104.076 448.176 104.9 446.822 105.429 445.292C106.018 443.762 106.312 442.173 106.312 440.525ZM125.016 419.339H135.609V426.048H135.786C136.963 423.576 138.64 421.664 140.817 420.31C142.995 418.956 145.496 418.28 148.321 418.28C148.968 418.28 149.586 418.339 150.174 418.456C150.822 418.574 151.469 418.721 152.117 418.898V429.138C151.234 428.902 150.351 428.726 149.468 428.608C148.644 428.431 147.82 428.343 146.997 428.343C144.525 428.343 142.524 428.814 140.994 429.755C139.523 430.638 138.375 431.668 137.551 432.845C136.786 434.022 136.256 435.199 135.962 436.376C135.727 437.553 135.609 438.436 135.609 439.024V461.711H125.016V419.339ZM184.043 455.885H183.778C182.248 458.298 180.306 460.063 177.952 461.182C175.598 462.241 173.009 462.77 170.184 462.77C168.242 462.77 166.329 462.506 164.446 461.976C162.622 461.446 160.974 460.652 159.503 459.593C158.09 458.533 156.943 457.209 156.06 455.62C155.177 454.031 154.736 452.177 154.736 450.059C154.736 447.764 155.148 445.822 155.972 444.233C156.796 442.585 157.884 441.231 159.238 440.172C160.65 439.054 162.269 438.171 164.093 437.524C165.917 436.876 167.801 436.406 169.743 436.111C171.744 435.758 173.744 435.552 175.745 435.493C177.746 435.376 179.63 435.317 181.395 435.317H184.043V434.169C184.043 431.521 183.131 429.549 181.307 428.255C179.482 426.901 177.158 426.224 174.333 426.224C172.097 426.224 170.007 426.636 168.065 427.46C166.123 428.225 164.446 429.285 163.034 430.638L157.472 425.077C159.826 422.664 162.563 420.928 165.682 419.869C168.86 418.809 172.126 418.28 175.481 418.28C178.482 418.28 181.013 418.633 183.072 419.339C185.132 419.986 186.839 420.84 188.192 421.899C189.546 422.958 190.576 424.194 191.282 425.607C192.047 426.96 192.577 428.343 192.871 429.755C193.224 431.168 193.43 432.551 193.489 433.904C193.548 435.199 193.577 436.347 193.577 437.347V461.711H184.043V455.885ZM183.425 442.732H181.218C179.747 442.732 178.099 442.791 176.275 442.909C174.451 443.026 172.715 443.32 171.067 443.791C169.478 444.203 168.124 444.851 167.006 445.733C165.888 446.557 165.329 447.734 165.329 449.264C165.329 450.265 165.535 451.118 165.947 451.824C166.418 452.472 167.006 453.031 167.712 453.502C168.419 453.972 169.213 454.325 170.096 454.561C170.979 454.737 171.861 454.826 172.744 454.826C176.393 454.826 179.07 453.972 180.777 452.266C182.543 450.5 183.425 448.117 183.425 445.115V442.732ZM228.535 399.212H268.877V409.276H239.658V425.695H267.199V435.758H239.658V461.711H228.535V399.212ZM276.664 419.339H287.257V461.711H276.664V419.339ZM275.164 404.95C275.164 403.243 275.782 401.772 277.017 400.536C278.312 399.242 279.93 398.594 281.873 398.594C283.815 398.594 285.433 399.212 286.728 400.448C288.081 401.625 288.758 403.126 288.758 404.95C288.758 406.774 288.081 408.305 286.728 409.54C285.433 410.717 283.815 411.306 281.873 411.306C279.93 411.306 278.312 410.688 277.017 409.452C275.782 408.157 275.164 406.657 275.164 404.95ZM297.653 419.339H307.717V426.136H307.893C308.894 424.018 310.424 422.193 312.483 420.663C314.543 419.074 317.339 418.28 320.87 418.28C323.694 418.28 326.078 418.75 328.02 419.692C330.021 420.634 331.639 421.87 332.875 423.4C334.111 424.93 334.994 426.695 335.523 428.696C336.053 430.697 336.318 432.786 336.318 434.964V461.711H325.725V440.26C325.725 439.083 325.666 437.789 325.548 436.376C325.43 434.905 325.107 433.551 324.577 432.315C324.106 431.021 323.341 429.961 322.282 429.138C321.223 428.255 319.781 427.813 317.956 427.813C316.191 427.813 314.69 428.108 313.454 428.696C312.277 429.285 311.277 430.079 310.453 431.08C309.688 432.08 309.129 433.228 308.776 434.522C308.423 435.817 308.246 437.171 308.246 438.583V461.711H297.653V419.339ZM373.06 455.885H372.795C371.265 458.298 369.323 460.063 366.969 461.182C364.615 462.241 362.025 462.77 359.2 462.77C357.258 462.77 355.346 462.506 353.463 461.976C351.638 461.446 349.99 460.652 348.519 459.593C347.107 458.533 345.959 457.209 345.076 455.62C344.194 454.031 343.752 452.177 343.752 450.059C343.752 447.764 344.164 445.822 344.988 444.233C345.812 442.585 346.901 441.231 348.254 440.172C349.667 439.054 351.285 438.171 353.109 437.524C354.934 436.876 356.817 436.406 358.759 436.111C360.76 435.758 362.761 435.552 364.762 435.493C366.763 435.376 368.646 435.317 370.411 435.317H373.06V434.169C373.06 431.521 372.148 429.549 370.323 428.255C368.499 426.901 366.174 426.224 363.349 426.224C361.113 426.224 359.024 426.636 357.082 427.46C355.14 428.225 353.463 429.285 352.05 430.638L346.489 425.077C348.843 422.664 351.579 420.928 354.698 419.869C357.876 418.809 361.142 418.28 364.497 418.28C367.498 418.28 370.029 418.633 372.089 419.339C374.148 419.986 375.855 420.84 377.209 421.899C378.562 422.958 379.592 424.194 380.298 425.607C381.063 426.96 381.593 428.343 381.887 429.755C382.24 431.168 382.446 432.551 382.505 433.904C382.564 435.199 382.593 436.347 382.593 437.347V461.711H373.06V455.885ZM372.442 442.732H370.235C368.764 442.732 367.116 442.791 365.291 442.909C363.467 443.026 361.731 443.32 360.083 443.791C358.494 444.203 357.141 444.851 356.023 445.733C354.904 446.557 354.345 447.734 354.345 449.264C354.345 450.265 354.551 451.118 354.963 451.824C355.434 452.472 356.023 453.031 356.729 453.502C357.435 453.972 358.229 454.325 359.112 454.561C359.995 454.737 360.878 454.826 361.76 454.826C365.409 454.826 368.087 453.972 369.793 452.266C371.559 450.5 372.442 448.117 372.442 445.115V442.732ZM392.225 419.339H402.289V426.136H402.465C403.466 424.018 404.996 422.193 407.055 420.663C409.115 419.074 411.911 418.28 415.442 418.28C418.266 418.28 420.65 418.75 422.592 419.692C424.593 420.634 426.211 421.87 427.447 423.4C428.683 424.93 429.566 426.695 430.095 428.696C430.625 430.697 430.89 432.786 430.89 434.964V461.711H420.297V440.26C420.297 439.083 420.238 437.789 420.12 436.376C420.002 434.905 419.679 433.551 419.149 432.315C418.678 431.021 417.913 429.961 416.854 429.138C415.795 428.255 414.353 427.813 412.528 427.813C410.763 427.813 409.262 428.108 408.026 428.696C406.849 429.285 405.849 430.079 405.025 431.08C404.26 432.08 403.701 433.228 403.348 434.522C402.995 435.817 402.818 437.171 402.818 438.583V461.711H392.225V419.339ZM470.103 432.051C468.868 430.756 467.573 429.726 466.219 428.961C464.866 428.196 463.483 427.813 462.07 427.813C460.128 427.813 458.392 428.167 456.862 428.873C455.332 429.579 454.008 430.521 452.89 431.698C451.83 432.875 451.006 434.228 450.418 435.758C449.888 437.288 449.623 438.877 449.623 440.525C449.623 442.173 449.888 443.762 450.418 445.292C451.006 446.822 451.83 448.176 452.89 449.353C454.008 450.53 455.332 451.471 456.862 452.177C458.392 452.884 460.128 453.237 462.07 453.237C463.718 453.237 465.248 452.913 466.661 452.266C468.073 451.56 469.279 450.559 470.28 449.264L477.342 456.856C476.283 457.915 475.047 458.828 473.634 459.593C472.281 460.358 470.898 460.976 469.485 461.446C468.073 461.917 466.719 462.241 465.425 462.417C464.13 462.653 463.012 462.77 462.07 462.77C458.892 462.77 455.891 462.241 453.066 461.182C450.241 460.122 447.799 458.622 445.739 456.679C443.68 454.737 442.032 452.413 440.796 449.706C439.619 446.94 439.03 443.88 439.03 440.525C439.03 437.171 439.619 434.14 440.796 431.433C442.032 428.667 443.68 426.313 445.739 424.371C447.799 422.429 450.241 420.928 453.066 419.869C455.891 418.809 458.892 418.28 462.07 418.28C464.777 418.28 467.485 418.809 470.192 419.869C472.958 420.869 475.37 422.487 477.43 424.724L470.103 432.051ZM490.444 444.233C490.797 447.411 492.033 449.882 494.152 451.648C496.27 453.413 498.83 454.296 501.832 454.296C504.48 454.296 506.687 453.766 508.452 452.707C510.277 451.589 511.865 450.206 513.219 448.558L520.811 454.296C518.339 457.356 515.573 459.534 512.513 460.828C509.453 462.123 506.245 462.77 502.891 462.77C499.713 462.77 496.712 462.241 493.887 461.182C491.062 460.122 488.62 458.622 486.56 456.679C484.5 454.737 482.852 452.413 481.616 449.706C480.439 446.94 479.851 443.88 479.851 440.525C479.851 437.171 480.439 434.14 481.616 431.433C482.852 428.667 484.5 426.313 486.56 424.371C488.62 422.429 491.062 420.928 493.887 419.869C496.712 418.809 499.713 418.28 502.891 418.28C505.833 418.28 508.511 418.809 510.924 419.869C513.396 420.869 515.485 422.34 517.191 424.282C518.957 426.224 520.311 428.637 521.252 431.521C522.253 434.346 522.753 437.612 522.753 441.32V444.233H490.444ZM512.16 436.288C512.101 433.169 511.13 430.726 509.247 428.961C507.363 427.137 504.745 426.224 501.39 426.224C498.212 426.224 495.682 427.137 493.798 428.961C491.974 430.785 490.856 433.228 490.444 436.288H512.16Z" fill="white"/>
<defs>
<linearGradient id="paint0_linear_360_1028" x1="90.9537" y1="283.058" x2="490.925" y2="102.016" gradientUnits="userSpaceOnUse">
<stop stop-color="white" stop-opacity="0"/>
<stop offset="0.321587" stop-color="white"/>
<stop offset="0.696602" stop-color="white" stop-opacity="0.713999"/>
<stop offset="1" stop-color="white" stop-opacity="0"/>
</linearGradient>
<linearGradient id="paint1_linear_360_1028" x1="-79.1198" y1="214.853" x2="534.79" y2="-133.294" gradientUnits="userSpaceOnUse">
<stop stop-color="white" stop-opacity="0"/>
<stop offset="0.321587" stop-color="white"/>
<stop offset="0.696602" stop-color="white" stop-opacity="0.713999"/>
<stop offset="1" stop-color="white" stop-opacity="0"/>
</linearGradient>
<linearGradient id="paint2_linear_360_1028" x1="-22.3839" y1="241.874" x2="519.244" y2="-65.5531" gradientUnits="userSpaceOnUse">
<stop stop-color="white" stop-opacity="0"/>
<stop offset="0.321587" stop-color="white"/>
<stop offset="0.696602" stop-color="white" stop-opacity="0.713999"/>
<stop offset="1" stop-color="white" stop-opacity="0"/>
</linearGradient>
</defs>
</svg>
