<svg width="644" height="130" viewBox="0 0 644 130" fill="none" xmlns="http://www.w3.org/2000/svg">
<path d="M126.195 112.173C105.758 122.624 81.7364 118.442 65.9531 103.511L54.8438 109.188C74.032 129.986 105.335 136.408 131.749 122.902C158.163 109.397 171.381 80.216 165.895 52.4194L154.634 58.1805C157.394 79.7707 146.645 101.723 126.208 112.173H126.195Z" fill="url(#paint0_linear_360_1034)"/>
<path d="M52.8838 83.6895C51.4205 79.8349 50.4497 75.9037 49.9157 71.9447C47.017 50.264 57.7727 28.152 78.2993 17.6596C98.8259 7.16713 122.972 11.4323 138.756 26.5239C141.634 29.2792 144.234 32.3824 146.481 35.8335L187 15.12L189.025 0.717208L149.934 20.8115C130.746 0.0144654 99.4431 -6.40763 73.029 7.09755C46.6217 20.5958 33.3973 49.784 38.8827 77.5806L0 97.4661L12.6627 104.25L52.8768 83.6895H52.8838Z" fill="url(#paint1_linear_360_1034)"/>
<path d="M183.774 36.6565L185.917 22.3025L19.0762 107.592L32.0163 114.237L183.774 36.6565Z" fill="url(#paint2_linear_360_1034)"/>
<path d="M220.71 37.734H229.736V80.2843H251.297V88.4506H220.71V37.734ZM255.778 54.0665H264.374V88.4506H255.778V54.0665ZM254.561 42.3902C254.561 41.0053 255.062 39.8114 256.065 38.8086C257.115 37.7579 258.429 37.2326 260.005 37.2326C261.581 37.2326 262.894 37.734 263.945 38.7369C265.043 39.692 265.592 40.9098 265.592 42.3902C265.592 43.8706 265.043 45.1123 263.945 46.1152C262.894 47.0703 261.581 47.5478 260.005 47.5478C258.429 47.5478 257.115 47.0464 256.065 46.0435C255.062 44.9929 254.561 43.7751 254.561 42.3902ZM272.81 34.2956H281.406V58.4361H281.621C282.051 57.8631 282.6 57.29 283.269 56.7169C283.937 56.0961 284.749 55.523 285.704 54.9977C286.659 54.4724 287.758 54.0426 288.999 53.7083C290.241 53.374 291.674 53.2069 293.297 53.2069C295.733 53.2069 297.978 53.6844 300.031 54.6396C302.085 55.5469 303.828 56.8124 305.26 58.4361C306.741 60.0598 307.887 61.97 308.699 64.1668C309.511 66.3636 309.916 68.7275 309.916 71.2585C309.916 73.7896 309.534 76.1535 308.77 78.3502C308.006 80.547 306.884 82.4572 305.404 84.0809C303.923 85.7046 302.132 86.994 300.031 87.9491C297.93 88.8565 295.566 89.3102 292.939 89.3102C290.504 89.3102 288.235 88.8326 286.134 87.8775C284.033 86.9224 282.361 85.3942 281.12 83.2929H280.977V88.4506H272.81V34.2956ZM301.32 71.2585C301.32 69.9214 301.082 68.632 300.604 67.3903C300.174 66.1487 299.506 65.0503 298.598 64.0952C297.739 63.1401 296.688 62.376 295.447 61.8029C294.205 61.2298 292.796 60.9433 291.22 60.9433C289.644 60.9433 288.235 61.2298 286.994 61.8029C285.752 62.376 284.678 63.1401 283.77 64.0952C282.911 65.0503 282.242 66.1487 281.765 67.3903C281.335 68.632 281.12 69.9214 281.12 71.2585C281.12 72.5957 281.335 73.8851 281.765 75.1267C282.242 76.3684 282.911 77.4668 283.77 78.4219C284.678 79.377 285.752 80.1411 286.994 80.7141C288.235 81.2872 289.644 81.5737 291.22 81.5737C292.796 81.5737 294.205 81.2872 295.447 80.7141C296.688 80.1411 297.739 79.377 298.598 78.4219C299.506 77.4668 300.174 76.3684 300.604 75.1267C301.082 73.8851 301.32 72.5957 301.32 71.2585ZM316.498 54.0665H325.094V59.5106H325.238C326.193 57.5049 327.554 55.9528 329.321 54.8545C331.088 53.7561 333.117 53.2069 335.41 53.2069C335.935 53.2069 336.436 53.2546 336.914 53.3501C337.439 53.4457 337.965 53.565 338.49 53.7083V62.0178C337.773 61.8268 337.057 61.6835 336.341 61.588C335.672 61.4447 335.004 61.3731 334.335 61.3731C332.329 61.3731 330.706 61.7551 329.464 62.5192C328.27 63.2356 327.339 64.0713 326.67 65.0264C326.049 65.9815 325.62 66.9366 325.381 67.8917C325.19 68.8469 325.094 69.5632 325.094 70.0408V88.4506H316.498V54.0665ZM364.398 83.7228H364.183C362.941 85.6807 361.365 87.1134 359.455 88.0208C357.545 88.8804 355.443 89.3102 353.151 89.3102C351.575 89.3102 350.023 89.0953 348.495 88.6655C347.015 88.2357 345.677 87.591 344.484 86.7314C343.337 85.8718 342.406 84.7973 341.69 83.5079C340.974 82.2184 340.615 80.7141 340.615 78.9949C340.615 77.1325 340.95 75.5565 341.618 74.2671C342.287 72.93 343.17 71.8316 344.269 70.972C345.415 70.0646 346.728 69.3483 348.208 68.823C349.689 68.2977 351.217 67.9156 352.793 67.6768C354.417 67.3903 356.04 67.2232 357.664 67.1754C359.288 67.0799 360.816 67.0321 362.249 67.0321H364.398V66.1009C364.398 63.9519 363.657 62.3521 362.177 61.3015C360.697 60.2031 358.81 59.6539 356.518 59.6539C354.703 59.6539 353.008 59.9882 351.432 60.6568C349.856 61.2776 348.495 62.1372 347.349 63.2356L342.836 58.7227C344.746 56.7647 346.967 55.3559 349.498 54.4963C352.077 53.6367 354.727 53.2069 357.449 53.2069C359.885 53.2069 361.938 53.4934 363.61 54.0665C365.281 54.5918 366.666 55.2843 367.764 56.1439C368.863 57.0035 369.699 58.0063 370.272 59.1525C370.892 60.2508 371.322 61.3731 371.561 62.5192C371.848 63.6654 372.015 64.7876 372.062 65.886C372.11 66.9366 372.134 67.8679 372.134 68.6797V88.4506H364.398V83.7228ZM363.896 73.0494H362.105C360.911 73.0494 359.574 73.0971 358.094 73.1926C356.613 73.2881 355.205 73.5269 353.868 73.909C352.578 74.2433 351.48 74.7686 350.572 75.4849C349.665 76.1535 349.211 77.1086 349.211 78.3502C349.211 79.1621 349.378 79.8545 349.713 80.4276C350.095 80.9529 350.572 81.4066 351.145 81.7886C351.719 82.1707 352.363 82.4572 353.08 82.6482C353.796 82.7915 354.512 82.8631 355.229 82.8631C358.189 82.8631 360.362 82.1707 361.747 80.7858C363.18 79.3531 363.896 77.419 363.896 74.9835V73.0494ZM400.501 37.734H433.238V45.9003H409.527V59.2241H431.877V67.3903H409.527V88.4506H400.501V37.734ZM439.557 54.0665H448.153V88.4506H439.557V54.0665ZM438.34 42.3902C438.34 41.0053 438.841 39.8114 439.844 38.8086C440.895 37.7579 442.208 37.2326 443.784 37.2326C445.36 37.2326 446.673 37.734 447.724 38.7369C448.822 39.692 449.371 40.9098 449.371 42.3902C449.371 43.8706 448.822 45.1123 447.724 46.1152C446.673 47.0703 445.36 47.5478 443.784 47.5478C442.208 47.5478 440.895 47.0464 439.844 46.0435C438.841 44.9929 438.34 43.7751 438.34 42.3902ZM456.589 54.0665H464.756V59.5823H464.899C465.711 57.8631 466.952 56.3826 468.624 55.141C470.295 53.8516 472.564 53.2069 475.429 53.2069C477.721 53.2069 479.655 53.5889 481.231 54.353C482.855 55.1171 484.168 56.12 485.171 57.3616C486.174 58.6033 486.89 60.0359 487.32 61.6596C487.75 63.2833 487.965 64.9787 487.965 66.7456V88.4506H479.369V71.0436C479.369 70.0885 479.321 69.0379 479.226 67.8917C479.13 66.6979 478.867 65.5995 478.438 64.5966C478.056 63.546 477.435 62.6864 476.575 62.0178C475.716 61.3015 474.546 60.9433 473.065 60.9433C471.632 60.9433 470.415 61.1821 469.412 61.6596C468.457 62.1372 467.645 62.7819 466.976 63.5937C466.355 64.4056 465.902 65.3368 465.615 66.3874C465.329 67.4381 465.185 68.5364 465.185 69.6826V88.4506H456.589V54.0665ZM517.78 83.7228H517.565C516.324 85.6807 514.748 87.1134 512.837 88.0208C510.927 88.8804 508.826 89.3102 506.534 89.3102C504.958 89.3102 503.406 89.0953 501.877 88.6655C500.397 88.2357 499.06 87.591 497.866 86.7314C496.72 85.8718 495.789 84.7973 495.072 83.5079C494.356 82.2184 493.998 80.7141 493.998 78.9949C493.998 77.1325 494.332 75.5565 495.001 74.2671C495.669 72.93 496.553 71.8316 497.651 70.972C498.797 70.0646 500.11 69.3483 501.591 68.823C503.071 68.2977 504.6 67.9156 506.175 67.6768C507.799 67.3903 509.423 67.2232 511.047 67.1754C512.67 67.0799 514.198 67.0321 515.631 67.0321H517.78V66.1009C517.78 63.9519 517.04 62.3521 515.559 61.3015C514.079 60.2031 512.193 59.6539 509.9 59.6539C508.086 59.6539 506.39 59.9882 504.814 60.6568C503.238 61.2776 501.877 62.1372 500.731 63.2356L496.218 58.7227C498.129 56.7647 500.349 55.3559 502.88 54.4963C505.459 53.6367 508.11 53.2069 510.832 53.2069C513.267 53.2069 515.321 53.4934 516.992 54.0665C518.664 54.5918 520.048 55.2843 521.147 56.1439C522.245 57.0035 523.081 58.0063 523.654 59.1525C524.275 60.2508 524.705 61.3731 524.943 62.5192C525.23 63.6654 525.397 64.7876 525.445 65.886C525.493 66.9366 525.516 67.8679 525.516 68.6797V88.4506H517.78V83.7228ZM517.279 73.0494H515.488C514.294 73.0494 512.957 73.0971 511.476 73.1926C509.996 73.2881 508.587 73.5269 507.25 73.909C505.961 74.2433 504.862 74.7686 503.955 75.4849C503.047 76.1535 502.594 77.1086 502.594 78.3502C502.594 79.1621 502.761 79.8545 503.095 80.4276C503.477 80.9529 503.955 81.4066 504.528 81.7886C505.101 82.1707 505.746 82.4572 506.462 82.6482C507.178 82.7915 507.895 82.8631 508.611 82.8631C511.572 82.8631 513.745 82.1707 515.13 80.7858C516.562 79.3531 517.279 77.419 517.279 74.9835V73.0494ZM533.332 54.0665H541.499V59.5823H541.642C542.454 57.8631 543.695 56.3826 545.367 55.141C547.038 53.8516 549.307 53.2069 552.172 53.2069C554.464 53.2069 556.398 53.5889 557.974 54.353C559.598 55.1171 560.911 56.12 561.914 57.3616C562.917 58.6033 563.633 60.0359 564.063 61.6596C564.493 63.2833 564.708 64.9787 564.708 66.7456V88.4506H556.112V71.0436C556.112 70.0885 556.064 69.0379 555.969 67.8917C555.873 66.6979 555.61 65.5995 555.181 64.5966C554.799 63.546 554.178 62.6864 553.318 62.0178C552.459 61.3015 551.289 60.9433 549.808 60.9433C548.375 60.9433 547.158 61.1821 546.155 61.6596C545.2 62.1372 544.388 62.7819 543.719 63.5937C543.098 64.4056 542.645 65.3368 542.358 66.3874C542.072 67.4381 541.928 68.5364 541.928 69.6826V88.4506H533.332V54.0665ZM596.529 64.3817C595.526 63.3311 594.475 62.4954 593.377 61.8745C592.279 61.2537 591.156 60.9433 590.01 60.9433C588.434 60.9433 587.025 61.2298 585.784 61.8029C584.542 62.376 583.468 63.1401 582.56 64.0952C581.701 65.0503 581.032 66.1487 580.555 67.3903C580.125 68.632 579.91 69.9214 579.91 71.2585C579.91 72.5957 580.125 73.8851 580.555 75.1267C581.032 76.3684 581.701 77.4668 582.56 78.4219C583.468 79.377 584.542 80.1411 585.784 80.7141C587.025 81.2872 588.434 81.5737 590.01 81.5737C591.347 81.5737 592.589 81.3111 593.735 80.7858C594.881 80.2127 595.86 79.4009 596.672 78.3502L602.403 84.5107C601.543 85.3703 600.54 86.1105 599.394 86.7314C598.296 87.3522 597.173 87.8536 596.027 88.2357C594.881 88.6177 593.783 88.8804 592.732 89.0236C591.682 89.2147 590.774 89.3102 590.01 89.3102C587.431 89.3102 584.996 88.8804 582.704 88.0208C580.411 87.1612 578.429 85.9434 576.758 84.3675C575.086 82.7915 573.749 80.9052 572.746 78.7084C571.791 76.4639 571.314 73.9806 571.314 71.2585C571.314 68.5364 571.791 66.077 572.746 63.8803C573.749 61.6358 575.086 59.7255 576.758 58.1496C578.429 56.5737 580.411 55.3559 582.704 54.4963C584.996 53.6367 587.431 53.2069 590.01 53.2069C592.207 53.2069 594.404 53.6367 596.6 54.4963C598.845 55.3081 600.803 56.6214 602.474 58.4361L596.529 64.3817ZM613.035 74.2671C613.321 76.8459 614.324 78.8517 616.043 80.2843C617.763 81.717 619.84 82.4333 622.275 82.4333C624.424 82.4333 626.215 82.0035 627.648 81.1439C629.128 80.2366 630.418 79.1143 631.516 77.7772L637.677 82.4333C635.671 84.9166 633.426 86.6836 630.943 87.7342C628.46 88.7849 625.857 89.3102 623.135 89.3102C620.556 89.3102 618.121 88.8804 615.828 88.0208C613.536 87.1612 611.554 85.9434 609.883 84.3675C608.211 82.7915 606.874 80.9052 605.871 78.7084C604.916 76.4639 604.439 73.9806 604.439 71.2585C604.439 68.5364 604.916 66.077 605.871 63.8803C606.874 61.6358 608.211 59.7255 609.883 58.1496C611.554 56.5737 613.536 55.3559 615.828 54.4963C618.121 53.6367 620.556 53.2069 623.135 53.2069C625.523 53.2069 627.696 53.6367 629.654 54.4963C631.659 55.3081 633.355 56.502 634.74 58.078C636.172 59.6539 637.271 61.6119 638.035 63.9519C638.847 66.2442 639.253 68.8946 639.253 71.9032V74.2671H613.035ZM630.657 67.8201C630.609 65.2891 629.821 63.3072 628.293 61.8745C626.764 60.3941 624.639 59.6539 621.917 59.6539C619.338 59.6539 617.285 60.3941 615.757 61.8745C614.276 63.355 613.369 65.3368 613.035 67.8201H630.657Z" fill="white"/>
<defs>
<linearGradient id="paint0_linear_360_1034" x1="29.1864" y1="120.466" x2="199.41" y2="43.417" gradientUnits="userSpaceOnUse">
<stop stop-color="white" stop-opacity="0"/>
<stop offset="0.321587" stop-color="white"/>
<stop offset="0.696602" stop-color="white" stop-opacity="0.713999"/>
<stop offset="1" stop-color="white" stop-opacity="0"/>
</linearGradient>
<linearGradient id="paint1_linear_360_1034" x1="-43.1959" y1="91.4392" x2="218.078" y2="-56.7283" gradientUnits="userSpaceOnUse">
<stop stop-color="white" stop-opacity="0"/>
<stop offset="0.321587" stop-color="white"/>
<stop offset="0.696602" stop-color="white" stop-opacity="0.713999"/>
<stop offset="1" stop-color="white" stop-opacity="0"/>
</linearGradient>
<linearGradient id="paint2_linear_360_1034" x1="-19.0503" y1="102.939" x2="211.461" y2="-27.8986" gradientUnits="userSpaceOnUse">
<stop stop-color="white" stop-opacity="0"/>
<stop offset="0.321587" stop-color="white"/>
<stop offset="0.696602" stop-color="white" stop-opacity="0.713999"/>
<stop offset="1" stop-color="white" stop-opacity="0"/>
</linearGradient>
</defs>
</svg>
